/* XPM */
static char* logo_xpm[] = {
"260 65 30 1",
"_ c #ffffff",
"` c #ffff9c",
"a c #ff9c9c",
"b c #dedebd",
"c c #debd5a",
"d c #cecece",
"e c #cece84",
"f c #bdbdbd",
"g c #b5b5b5",
"h c #9cff9c",
"i c #9c9cce",
"j c #846b84",
"k c #6b9cc6",
"l c #63ff63",
"m c #634a63",
"n c #5aa5d6",
"o c #5a395a",
"p c None",
"q c #4ab5ef",
"r c #4a8cbd",
"s c #395aa5",
"t c #31cece",
"u c #294a84",
"v c #182931",
"w c #18085a",
"x c #00ffff",
"y c #00ff00",
"z c #000808",
"{ c #0000ff",
"| c #000000",
"pppppppppppppppppppppppppppppppppppppppppppppppppppppppppppppppppppppppppppppppppppppppppppppppppppppppppppppppppppppppppppppppppppppppppppppppppppppppppppppppppppppppppppppppppppppppppppppppppppppppppppppppppppppppppppppppppppppppppppppppppppppppppppppppppppp", 
"pppppppppppppppppppppppppppppppppppppppppppppppppppppppppppppppppppppppppppppppppppppppppppppppppppppppppppppppppppppppppppppppppppppppppppppppppppppppppppppppppppppppppppppppppppppppppppppppppppppppppppppppppppppppppppppppppppppppppppppppppppppppppppppppppppp", 
"pppppppppppppppppppppppppppppppppppppppppppppppppppppppppppppppppppppppppppppppppppppppppppppppppppppppppppppppppppppppppppppprsuuuuwwwwwwwwuuusrppppppppppppppppppppppppppppppppppppppppppppppprruuuuwwpppppppppprrsuuuuwuppppppppppppppppppppppppppppppppppppppppp", 
"ppppppppppppppppppppppppppppppppppppppppppppppppppppppppppppppppppppppppppppppppppppppppppppppppppppppppppppppppppppppppprsuwwwwwwwwwwwwwwwwwwwwwwusppppppppppppppppppppppppppppppppppppppppuwwwwwwwwwwwpppppppuwwwwwwwwwwuppppppppppppppppppppppppppppppppppppppppp", 
"pppppppppppppppppppppppppppppppppppppppppppppppv||||||||||||uppppppppppppppppppppppppppppppppppppppnz||uppppppppppppppsuwwwwwwwwwwwwwwwwwwuwwwwwwwwwwuppppppppppppppppppppppppppppppppppppppsuuuuuuwwwwupppppppuuuuuuwwwwwuppppppppppppppppppppppppppppppppppppppppp", 
"pppppppppppppppppppppppppppppppppppppppppppppppnv||||||||||||rppppppppppppppppppppppppppppppppppppnu||uppppppppppppsuwwwwwwusrppppuwwwwwwupppruwwwwwwwwspppppppppppppppppppppppppppppppppppppppppppwwwwuppppppppppppprwwwwuppppppppppppppppppppppppppppppppppppppppp", 
"ppppppppppppppppppppppppppppppppppppppppppppppppnz||||||||||||npppppppppppppppppppppppppppppppppppu||znppppppppppuwwwwwusrppppppppswwwwwwsppppppswwwwwwwuppppppppppppppppppppppppppppppppppppppppppwwwwupppppppppppppswwwwsppppppppppppppppppppppppppppppppppppppppp", 
"pppppppppppppppppppppppppppppppppppppppppppppppppk||||||||||||vnpppppppppppppppppppppppppppppppppr||znpppppppppuwwwwusppppppppppppswwwwwwrppppppppswwwwwwwpppppppppppppppppppppppppppppppppppppppprwwwwspppppppppppppuwwwwrppppppppppppppppppppppppppppppppppppppppp", 
"ppppppppppppppppppppppppppppppppppppppppppppppppppu||||||||||||uppppppppppppppppppppppppppppppppnz||rppppppppuwwwwspppppppppppppppuwwwwwwpppppppppprwwwwwwupppppppppppppppppppppppppppppppppppppppswwwwrpppppppppppppuwwwwpppppppppppppppppppppppppppppppppppppppppp", 
"ppppppppppppnddddddddddd||dddddddddddddddppppppppppu||||||||||||rppppppppppppppppppppppppppppppnz||uppppppprwwwurpppppppppppppppppwwwwwwuppppppppppprwwwwwwrppppppppppppppppppppppppppppppppppppppuwwwwppppppppppppppuwwwwpppppppppppppppppppppppppppppppppppppppppp", 
"ppppppppppppidddddddddd|_b|dggdddddddddddppppppppppnv||||||||||||npppppppppppppppppppppppppppppu||unpppppruwwwrpppppppppppppppppppwwwwwwsppppppppppppuwwwwwwpppppppppppppppppppppwwwupppppppppppppuwwwwppppppppppppppwwwwupppppppppppppppppppppppppppppppppppppppppp", 
"ppppppppppppgdddddddddd|__b|bvzfdddddddddpppppppppppk||||||||||||vppppppppppppppppppppppppppppu||znppppprwwwupppppppppppppppppppprwwwwwwrpppppppppppppwwwwwwspppppppppppppppppppswwwspppppppppppppwwwwuppppppppppppprwwwwupppppppppppppppppppppppppppppppppppppppppp", 
"ppppppppppppgddddddddd||b__|idduuddddddddppppppppppppr||||||||||||vnpppppppppppppppppppppppppr||zkppppprwwwrpppppppppppppppppppppuwwwwwwppppppppppppppuwwwwwupppppppppppppppppppwwwwppppppppppppprwwwwupppppppppppppswwwwspppppppppppppppppppppppppppppppppppppppppp", 
"ppppppppppppgdddddddd|bb|__|dumdividdddddpppppppppppppu||||||||||||rppppppppppppppppppppppppk|||kppppprwwwpppppppppppppppppppppppuwwwwwuppppppppppppppswwwwwupppppppppppppppppprwwwupppppppppppppswwwwspppppppppppppuwwwwrpppppppppppppppppppppppppppppppppppppppppp", 
"ppppppppppppgddaaaddd|__|b_utxrviduvfddddpppppppppppppnv||||||||||||kppppppppppppppppppppppnv||uppppprwwwrpppppppppppppppppppppppwwwwwwupppppppppppppprwwwwwwppppppppppppppppppswwwspppppppppppppuwwwwrpppppppppppppuwwwwppppppppppppppppppppppppppppppppppppppppppp", 
"ppppppppppppgdddaaaaab|_b|__uxxx|vdfvmdddppppppppppppppk||||||||||||vnppppppppppppppppppppnv||uppppppuwwrppppppppppppppppppppppprwwwwwwrpppppppppppppppwwwwwwppppppppppppppppppwwwwrpppppppppppppuwwwwppppppppppppppwwwwuppppppppppppppppppppppppppppppppppppppppppp", 
"ppppppppppppghlhhfddd|_b__b_|xxtutvmdmvgdpppppppppppppppr||||||||||||uppppppppppppppppppppr||vnppppprwwuppppppppppppppppppppppppswwwwwwppppppppppppppppwwwwwwppppppppppppppppprwwwwppppppppppppppwwwwuppppppppppppprwwwwuppppppppppppppppppppppppppppppppppppppppppp", 
"ppppppppppppgyyyyyyyg|b_____|xxuxxxrvidigppppppppppppppppu||||||||||||rppppppppppppppppppu||znppppppuwwrppppppppppppppppppppppppuwwwwwuppppppppppppppprwwwwwupppppppppppppppppruuusppppppppppppprwwwwupppppppppppppswwwwsppppppppppppppppppppppppppppppppppppppppppp", 
"ppppppppppppgddiiddgdfvooooo|xtuxxxxtvfddppppppppppppppppnv||||||||||||rppppppppppppppppk|||kpppppprwwwpppppppppppppppppppppppppwwwwwwupppppppppppppppswwwwwupppppppppppppppppppppppppppppppppppswwwwspppppppppppppuwwwwpppppppppppppppppppppppppppppppppppppppppppp", 
"ppppppppppppgdi{{{{kgoccceccvruxxxxxufdddpppppppppppppppppnz||||||||||||nppppppppppppppk|||upppppppswwupppppppppppppppppppppppprwwwwwwrpppppppppppppppuwwwwwrpppppppppppppppppppppppppppppppppppuwwwwrpppppppppppppwwwwwpppppppppppppppppppppppppppppppppppppppppppp", 
"ppppppppppppgddddfoooccccccccooorxxtuddddppppppppppppppppppk||||||||||||vnppppppppppppnv||uppppppppuwwuppppppppppppppppppppppppswwwwwwppppppppppppppppwwwwwuppppppppppppppppppppppppppppppppppppuwwwwppppppppppppppwwwwupppppppppppppppppppppppppppppppppppppppppppp", 
"ppppppppppppgdeccocccccccccccccccrxofddddpppppppppppppppppppu||||||||||||uppppppppppppu||vnppppppppuwwwppppppppppppppppppppppppuwwwwwupppppppppppppppuwwwwwrppppppppppppppppppppppppppppppppppppwwwwuppppppppppppprwwwwupppppppppppppppppppppppppppppppppppppppppppp", 
"ppppppppppppgdeccoccccccccccccccccmcoddddppppppppppppppppppppu||||||||||||rppppppppppr||vnpppppppppuwwwspppppppppppppppppppppppuwwwwwupppppppppppppprwwwwwupppppppppppppppppppppppppppppppppppprwwwwupppppppppppppswwwwrpppppppppppppppppppppppppppppppppppppppppppp", 
"ppppppppppppgdddfooccccccccccccccoccoddddppppppppppppppppppppnv|||||||||||znppppppppk|||kppppppppppswwwwpppppppppppppppppppppppwwwwwwsppppppppppppppuwwwwwpppppppppppppppppppppppppppppppppppppswwwwspppppppppppppuwwwwppppppppppppppppppppppppppppppppppppppppppppp", 
"ppppppppppppgddfmccccccccccccccccccccjdddpppppppppppppppppppppk||||||||||||vpppppppnz||kppppppppppppuwwwwppppppppppppppppppppprwwwwwwppppppppppppppuwwwwwppppppppppppppppppppppppppppppppppppppuwwwwrpppppppppppppwwwwwppppppppppppppppppppppppppppppppppppppppppppp", 
"ppppppppppppgddooccccccccccccccccccccciddppppppppppppppppppppppr||||||||||||vnppppnv||upppppppppppppruuuuuppppppppppppppppppppswwwwwwpppppppppppppuwwwwupppppppppppppppppppppppppppppppppppppppuwwwwppppppppppppppwwwwuppppppppppppppppppppppppppppppppppppppppppppp", 
"ppppppppppppgddoccccccccccccccccccccccmddpppppppppppppppppppppppu||||||||||||rppppu||unpppppppppppppppppppppppppppppppppppppppuwwwwwupppppppppppruwwwwsppppppppppppppppppppppprssppppppppppppppwwwwuppppppppppppprwwwwsppppppppppppppppppppppppppppppppppppppppppppp", 
"ppppppppppppgddocccccccccc||||ccccccccmddpppppppppppppppppppppppnv|||||||||||zpppm||znppppppppppppppppppppppppppppppppppppppppwwwwwwurppppppppsuwwwwurppppppppppppppppppppppruwwwppppppppppppprwwwwupppppppppppppswwwwrppppppppppppppppppppppppppppppppppppppppppppp", 
"ppppppppppppgddocc||||ccc|____|cccccccoddppppppppppppppppppppppppk|||||||||||rppk||vnpppppppppppppppppppppppppppppppppppppppprwwwwwwwwwwuuuuwwwwwwurpppppppppppppppppppppppswwwwwpppppppppppppswwwwrpppppppppppppuwwwwpppppppppppppppppppppppppppppppppppppppppppppp", 
"ppppppppppppgddmc|____|c|_____|cccccocjddpppppppppppppppppppppppppr|||||||||vppk|||rpppppppppppppppppppppppppppppppppppppppppswwwwwwwwwwwwwwwwwwwwrpppppppppppppppppppppppuwwwwwwpppppppppppppuwwwwppppppppppppppwwwwwpppppppppppppppppppppppppppppppppppppppppppppp", 
"ppppppppppppgdddiv____|c|______||||cocdddppppppppppppppppppppppppppu|||||||unpnv||rppppppppppppppppppppppppppppppppppppppppppuwwwwwwusrrruuwwwwwwwwurppppppppppppppppppppuwwwwwwupppppppppppppuwwwwppppppppppppppwwwwupppppppppppppppppppppppppppppppppppppppppppppp", 
"ppppppppppppgddddv_____||______|_boomidddpppppppppppppppppppppppppppu|||||znppu||znppppppppppppppppppppppppppppppppppppppppppuwwwwwsppppppppruwwwwwwwsppppppppppppppppppwwwuwwwwupppppppppppppwwwwuppppppppppppprwwwwspppppppppppppppppppppppppppppppppppppppppppppp", 
"ppppppppppppgddjmv_____||______|b_omdddddpppppppppppppppppppppppppppnz||||kppu||||nppppppppppppppppppppppppppppppppppppppppppwwwwwwrppppppppppruwwwwwwuppppppppppppppppwwwpswwwwrpppppppppppprwwwwspppppppppppppuwwwwrpppppppppppppppppppppppppppppppppppppppppppppp", 
"pppppppppppppppoo|_____|_|___bbvmmmmoooppppppppppppppppppppppppppppppr|||rppr|||||vnpppppppppppppppppppppppppppppppppppppppprwwwwwwpppppppppppppuwwwwwwuppppppppppppppuwuppuwwwwpppppppppppppswwwwrpppppppppppppuwwwwppppppppppppppppppppppppppppppppppppppppppppppp", 
"pppppppppppppppo_||___|_b|____|_oobob_opppppppppppppppppppppppppppppnv||uppk|||||||uppppppppppppppppppppppppppppppppppppppppswwwwwuppppppppppppppswwwwwwuppppppppppppuwupppwwwwupppppppppppppuwwwwppppppppppppppwwwwuppppppppppppppppppppppppppppppppppppppppppppppp", 
"pppppppppppppppob_b|||_b_b||||_ooo_b_oopppppppppppppppppppppppppppppu||znpnz||||||||rpppppppppppppppppppppppppppppppppppppppuwwwwwupppppppppppppppswwwwwwspppppppppppwuppprwwwwupppppppppppppwwwwwppppppppppppppwwwwuppppppppppppppppppppppppppppppppppppppppppppppp", 
"pppppppppppppppoooo``obob_b_b_o``ob_bopppppppppppppppppppppppppppppr||vkpnu||||||||||kppppppppppppppppppppppppppppppppppppppwwwwwwrppppppppppppppppuwwwwwwrpppppppppppppppswwwwrpppppppppppppwwwwuppppppppppppprwwwwsppppppppppppppppppppppppppppppppppppppppppppppp", 
"pppppppppppppppppo```o_bob_b_o```o_b_oppppppppppppppppppppppppppppk|||kppu|||||||||||vnpppppppppppppppppppppppppppppppppppprwwwwwwppppppppppppppppppwwwwwwupppppppppppppppuwwwwppppppppppppprwwwwspppppppppppppuwwwwrppppppppppppppppppppppppppppppppppppppppppppppp", 
"ppppppppppppppppppo```o_b_b_o````ooooopppppppppppppppppppppppppppkz||rpppr||||||||||||vnpppppppppppppppppppppppppppppppppppswwwwwwppppppppppppppppppswwwwwwrppppppppppppppwwwwupppppppppppppswwwwrpppppppppppppuwwwwpppppppppppppppppppppppppppppppppppppppppppppppp", 
"ppppppppppppppppppo````o_b_oo``````oopppppppppppppppppppppppppppnv||upppppu||||||||||||rpppppppppppppppppppppppppppppppppppuwwwwwupppppppppppppppppppwwwwwwuppppppppppppprwwwwupppppppppppppuwwwwppppppppppppppwwwwupppppppppppppppppppppppppppppppppppppppppppppppp", 
"pppppppppppppppppppo``o`ooo```````ooppppppppppppppppppppppppppppv||uppppppnv||||||||||||kppppppppppppppppppppppppppppppppppwwwwwwspppppppppppppppppppuwwwwwwpppppppppppppswwwwrpppppppppppppwwwwuppppppppppppppwwwwupppppppppppppppppppppppppppppppppppppppppppppppp", 
"ppppppppppppppppppppo`o`o``o``````oppppppppppppppppppppppppppppu||znpppppppnz|||||||||||zkpppppppppppppppppppppppppppppppppwwwwwwrppppppppppppppppppprwwwwwwsppppppppppppuwwwwppppppppppppppwwwwuppppppppppppprwwwwspppppppppppppppppppppppppppppppppppppppppppppppp", 
"ppppppppppppppppppppo`o`o`o``````oppppppppppppppppppppppppppppk|||kpppppppppk||||||||||||vpppppppppppppppppppppppppppppppprwwwwwwpppppppppppppppppppppwwwwwwuppppppppppppwwwwuppppppppppppprwwwwspppppppppppppuwwwwrpppppppppppppppppppppppppppppppppppppppppppppppp", 
"ppppppppppppppppppppo``oo`o``````opppppppppppppppppppppppppppkz||kpppppppppppu||||||||||||upppppppppppppppppppppppppppppppuwwwwwupppppppppppppppppppppwwwwwwuppppppppppprwwwwupppppppppppppuwwwwrpppppppppppppuwwwwppppppppppppppppppppppppppppppppppppppppppppppppp", 
"ppppppppppppppppppppo``ooo```````oppppppppppppppppppppppppppnv||upppppppppppppu||||||||||||rppppppppppppppppppppppppppppppuwwwwwupppppppppppppppppppppuwwwwwupppppppppppswwwwrpppppppppppppuwwwwppppppppppppppwwwwuppppppppppppppppppppppppppppppppppppppppppppppppp", 
"ppppppppppppppppppppo```oo```````oppppppppppppppppppppppppppv||uppppppppppppppnz||||||||||||npppppppppppppppppppppppppppppwwwwwwrpppppppppppppppppppppuwwwwwupppppppppppuwwwwppppppppppppppwwwwuppppppppppppprwwwwuppppppppppppppppppppppppppppppppppppppppppppppppp", 
"ppppppppppppppppppppo```o````````opppppppppppppppppppppppppu||vnpppppppppppppppk||||||||||||vkppppppppppppppppppppppppppprwwwwwwppppppppppppppppppppppwwwwwwupppppppppppwwwwuppppppppppppppwwwwupppppppppppppswwwwrppppppppppppppppppppppppppppppppppppppppppppppppp", 
"ppppppppppppppppppppo```o```````ooppppppppppppppppppppppppr|||npppppppppppppppppr||||||||||||upppppppppppppppppppppppppppswwwwwwppppppppppppppppppppppwwwwwwupppppppppprwwwwsppppppppppppprwwwwspppppppppppppuwwwwpppppppppppppppppppppppppppppppppppppppppppppppppp", 
"pppppppppppppppppppppooooooooooooppppppppppppppppppppppppk|||rpppppppppppppppppppu||||||||||||uppppppppppppppppppppppppppuwwwwwuppppppppppppppppppppprwwwwwwrppppppppppswwwwrpppppppppppppuwwwwrpppppppppppppuwwwwpppppppppppppppppppppppppppppppppppppppppppppppppp", 
"ppppppppppppppppppppppo``````````oppppppppppppppppppppppnv||rppppppppppppppppppppnv||||||||||||kpppppppppppppppppppppppppwwwwwwspppppppppppppppppppppswwwwwwpppppppppppuwwwwppppppppppppppuwwwwppppppppppppppwwwwupppppppppppppppppppppppppppppppppppppppppppppppppp", 
"pppppppppppppppppppoopo``oo`````ooopppppppppppppppppppppv||vppppppppppppppppppppppk||||||||||||vnppppppppppppppppppppppprwwwwwwrpppppppppppppppppppppwwwwwwupppppppppppwwwwuppppppppppppppwwwwuppppppppppppppwwwwupppppppppppppppppppppppppppppppppppppppppppppppppp", 
"ppppppppppppppppppoooo````oooo`ooooppppppppppppppppppppu||vnpppppppppppppppppppppppr||||||||||||vnppppppppppppppppppppppswwwwwwppppppppppppppppppppprwwwwwwrpppppppppprwwwwuppppppppppppppwwwwuppppppppppppprwwwwrpppppppppppppppppppppppppppppppppppppppppppppppppp", 
"ppppppppppppppppppoooooo``oppoooooopppppppppppppppppppr||zkpppppppppppppppppppppppppu||||||||||||rppppppppppppppppppppppuwwwwwwpppppppppppppppppppppuwwwwwupppppppppppswwwwrppppusppppppprwwwwspppppppuuppppuwwwwrpppppppurppppppppppppppppppppppppppppppppppppppppp", 
"ppppppppppppppppppooooooooppoooooopppppppppppppppppppk|||kpppppppppppppppppppppppppppu||||||||||||rpppppppppppppppppppppwwwwwwuppppppppppppppppppppuwwwwwwrpppppppppppuwwwwppppuwupppppppswwwwrpppppruwsppppuwwwwpppppprwwrppppppppppppppppppppppppppppppppppppppppp", 
"pppppppppppppppppppoooooooppooooooppppppppppppppppppkz||rppppppppppppppppppppppppppppnz|||||||||||zkppppppppppppppppppprwwwwwwupppppppppppppppppppswwwwwwsppppppppppppuwwwwpppuwwppppppppuwwwwrppppswwspppppuwwwwpppppuwwrppppppppppppppppppuuuupppppppuuppppppppppp", 
"ppppppppppppppppppppppoooppppoooopppppppppppppppppppv||uppppppppppppppppppppppppppppppk||||||||||||vpppppppppppppppppppuwwwwwwuppppppppppppppppppswwwwwwupppppppppppppwwwwuppuwwpppppppppuwwwwsppruwwrppppppuwwwwrppswwwpppppppppppppppppppuuppuuppppuuuuppppppppppp", 
"ppppppppppppppppppppppppppppppppppppppppppppppppppnu||vnpppppppppppppppppppppppppppppppu||||||||||||uppppppppppppppppppwwwwwwwwrppppppppppppppppuwwwwwwuppppppppppppppwwwwurwwwppppppppppuwwwwwsuwwwppppppppwwwwwuswwwuppppppppppppuupppuupppppuuppppppuuppppppppppp", 
"ppppppppppppppppppppppppppppppppppppppppppppppppppu||zkpppppppppppppppppppppppppppppppppu||||||||||||rppppppppppppppppwwwwwwwwwwppppppppppppppuwwwwwwwspppppppppppppprwwwwwwwwpppppppppppuwwwwwwwwupppppppppwwwwwwwwwspppppppppppppuupppuuppppuupppppppuuppppppppppp", 
"pppppppppppppppppppppppppppppppppppppppppppppppppr|||rppppppppppppppppppppppppppppppppppnz||||||||||||npppppppppppprswwwwwwwwwwwwurppppppprsuwwwwwwwwrppppppppppppppprwwwwwwuppppppppppppuwwwwwwwsppppppppppwwwwwwwwrpppppppppppppppuupuuppppuuppppppppuuppppppppppp", 
"ppppppppppppppppppppppppppppppppppppppppppppppppk|||rppppppppppppppppppppppppppppppppppppkz|||||||||||vkppppppruuuwwwwwwwwwwwwwwwwwwwuuuwwwwwwwwwwwsppppppppppppppppppwwwwwupppppppppppppswwwwwurpppppppppppuwwwwwupppppppppppppppppuupuupppuupppppppppuuppppppppppp", 
"pppppppppppppppppppppppppppppppppppppppppppppppnuzzuppppppppppppppppppppppppppppppppppppppr|||vzzzzzzv|uppppppwwwwwwwwwuuuuuuwwwwwwwwwwwwwwwwwwwurppppppppppppppppppppuwwwrpppppppppppppppuwwwrppppppppppppppwwwurpppppppppppppppppppuuupppuuppppppppppuuppppppppppp", 
"pppppppppppppppppppppppppppppppppppppppppppppppppppppppppppppppppppppppppppppppppppppppppppppppppppppppppppppruusrrpppppppppppppppprrrrrsuuusrpppppppppppppppppppppppppssppppppppppppppppppsspppppppppppppppppsrpppppppppppppppppppppuuupppuupppppuupppuuppppppppppp", 
"ppppppppppppppppppppppppppppppppppppppppppppppppppppppppppppppppppppppppppppppppppppppppppppppppppppppppppppppppppppppppppppppppppppppppppppppppppppppppppppppppppppppppppppppppppppppppppppppppppppppppppppppppppppppppppppppppppppppuppppuuuuuupuupppuuppppppppppp", 
"pppppppppppppppppppppppppppppppppppppppppppppppppppppppppppppppppppppppppppppppppppppppppppppppppppppppppppppppppppppppppppppppppppppppppppppppppppppppppppppppppppppppppppppppppppppppppppppppppppppppppppppppppppppppppppppppppppppppppppppppppppppppppppppppppppp", 
"pppppppppppppppppppppppppppppppppppppppppppppppppppppppppppppppppppppppppppppppppppppppppppppppppppppppppppppppppppppppppppppppppppppppppppppppppppppppppppppppppppppppppppppppppppppppppppppppppppppppppppppppppppppppppppppppppppppppppppppppppppppppppppppppppppp"};
