/* XPM */
static char * palm_xpm[] = {
"28 24 5 1",
" 	c #FFFFFF",
".	c #CEDAE6",
"X	c #4674A2",
"o	c #F9FAFB",
"O	c #7698BA",
"        .XX.o.OXOo          ",
"    OOOOXXXXOOXXXOOOOOOO    ",
"    ooooOXXO..XXX.oooooo    ",
"        .OO. o.OOo          ",
"        o..o  oooo..        ",
"        .XX.o   oOXX.       ",
"    OOOOXXXXOOOOOXXXXOOO    ",
"        OXXO.    XXX.       ",
"        .OO.     .OOo       ",
"        o..o oo..ooo        ",
"       o.XXOo.OXX.          ",
"    OOOOXXXXOXXXXXOOOOOO    ",
"        OXXOo.XXX.          ",
"        o.O. o.O.o          ",
"        .OO.                ",
"    ooo.OXXX.ooooooooooo    ",
"    OOOOXXXXOOOOOOOOOOOO    ",
"        .XX.o               ",
"        o..o                ",
"        .OO.                ",
"    ooo.OXXX.ooooooooooo    ",
"    OOOOXXXXOOOOOOOOOOOO    ",
"    oooo.XX.oooooooooooo    ",
"                            "};
