/* XPM */
static char * palmcpu_xpm[] = {
"55 45 12 1",
" 	c None",
".	c #E3DDE2",
"X	c #B7B2BE",
"o	c #8B9084",
"O	c #63636B",
"+	c #525452",
"@	c #737384",
"#	c #171C1C",
"$	c #000000",
"%	c #394231",
"&	c #424A4A",
"*	c #637B52",
" XXXXXXXXXXXXXXXXXXXXXXXXXXooO+O@oO###@                ",
" XXXXXXXXXXXXXXXXXXXXXXXXXXooooooo#$$%@                ",
" XXXXXXXXXXXXXXXXXXXXXXXXooooo@@@@O+&#@       $$       ",
" XXXX$$$$$$$$$$$$$$$$$$$$$$$$$$$$oO++#@       $$       ",
" XXXX$$$$$$$$$$$$$$$$$$$$$$$$$$$$oO+&#@       $$       ",
" XXXX$$$$$$$$$$$$$$$$$$$$$$$$$$$$o@+&#@       $$       ",
" XXXX$$$$$$$$$$$$$$$$$$$$$$$$$$$$o@&&%@       $$       ",
" XXXX$$$$$$$$$$$$$$$$$$$$$$$$$$$$o@&&#O       $$       ",
" XXXX$$$$$$$$$$$$$$$$$$$$$$$$$$$$o@+&#O       $$       ",
" XXXX$$$$$$$$$$$$$$$$$$$$$$$$$$$$o@+&#O       $$       ",
" XXXX$$$$$$$$$$$$$$$$$$$$$$$$$$$$o@+&#O       $$       ",
" XXXX$$$$$$$$$$$$$$$$$$$$$$$$$$$$o@+&#+       $$       ",
" XXXX$$$$$$$$$$$$$$$$$$$$$$$$$$$$o@+&#+       $$       ",
" XXXX$$$$$$$$$$$$$$$$$$$$$$$$$$$$*@+&#+       $$       ",
" XXXX$$$$$$$$$$$$$$$$$$$$$$$$$$$$*@+%#+       $$       ",
" XXXX$$$$$$$$$$$$$$$$$$$$$$$$$$$$*@+&#+       $$       ",
" XXXX$$$$$$$$$$$$$$$$$$$$$$$$$$$$*@+&#&       $$       ",
" XXXX$$$$$$$$$$$$$$$$$$$$$$$$$$$$*@&&#&       $$       ",
" XXXX$$$$$$$$$$$$$$$$$$$$$$$$$$$$*@+&#+       $$       ",
" XXXX$$$$$$$$$$$$$$$$$$$$$$$$$$$$*@+&#+       $$       ",
" XXXX$$$$$$$$$$$$$$$$$$$$$$$$$$$$*@+%#&       $$       ",
" XXXX$$$$$$$$$$$$$$$$$$$$$$$$$$$$*@+&#&       $$       ",
" XXXX$$$$$$$$$$$$$$$$$$$$$$$$$$$$o@+&#&       $$       ",
" XXXX$$$$$$$$$$$$$$$$$$$$$$$$$$$$*@+&#&       $$       ",
" XXXX$$$$$$$$$$$$$$$$$$$$$$$$$$$$o@+&#%       $$       ",
" XXXX$$$$$$$$$$$$$$$$$$$$$$$$$$$$o@+&#%       $$       ",
" XXXX$$$$$$$$$$$$$$$$$$$$$$$$$$$$o@+&#%       $$       ",
" XXXX++$++***********+*******&%%*o@+&#%       $$       ",
" XXXX&+&$#+******************$#%+o@+&#%       $$       ",
" XXXX&*+++*******************+%&+o@+&#%       $$       ",
" XXXX&**+************************o@+&##       $$       ",
" XXXX&+$+$+******************$%%%oO+&##       $$       ",
" XXXX&*$##*******************%#$+oO+&##       $$       ",
" XXXX#+%%**++**************+**#&*oO+&##       $$       ",
" XXXX+@O&+&#%+++*****+****+%+*+++oO+&##       $$       ",
" XXXXXXXXXXXXXXXXXXXXXXooXooooo@@@O+&##       $$       ",
" XXXXXXXXXXXXXXXXXXXXXooooo@@@@OOO++&##       $$       ",
" X..X+#OXXXXXXXXXXo@ooooo@@@@@O&&@O+&#$       $$       ",
" X..+$@@#.XO#$oXX#$$$&o@%$$o@%$OO$&O&%#        $       ",
" XXXX&%%OXX&$+$.X&$$$@o&$%%o@&$#@O&+&%#                ",
" XXXXXooXoX@$##XoO$$$@o+$%O+OO&$#&+&&&%                ",
" o@@ooooooooooooo#$$$%@@@OOOOO++++OOO+&                ",
"   .X@O@@oooooooo%$$$+@@@@OOOOOO++&&%+o                ",
"       .o@OOOO@@@oO+O@@@OOO++&%%&Oo.                   ",
"            .X@O++OO+&&&&&&@o..                        "};
