#define palm_width 28
#define palm_height 24
static char palm_bits[] = {
 0x00,0x81,0x00,0x00,0x40,0x54,0x08,0x00,0x00,0x21,0x01,0x00,0x00,0x8a,0x00,
 0x00,0x00,0x00,0x08,0x00,0x00,0x04,0x04,0x00,0xa0,0x92,0x28,0x00,0x00,0x04,
 0x04,0x00,0x00,0x02,0x08,0x00,0x00,0x00,0x01,0x00,0x00,0x4a,0x00,0x00,0x20,
 0x91,0x4a,0x00,0x00,0x42,0x00,0x00,0x00,0x08,0x01,0x00,0x00,0x02,0x00,0x00,
 0x00,0x09,0x00,0x00,0x20,0x92,0x48,0x00,0x00,0x04,0x00,0x00,0x00,0x02,0x00,
 0x00,0x00,0x01,0x00,0x00,0x00,0x14,0x00,0x00,0x40,0x85,0x24,0x00,0x00,0x08,
 0x00,0x00,0x00,0x00,0x00,0x00};
